<?xml version="1.0" encoding="utf-8"?>
<!-- Generator: Adobe Illustrator 25.3.1, SVG Export Plug-In . SVG Version: 6.00 Build 0)  -->
<svg version="1.1" id="图层_1" xmlns="http://www.w3.org/2000/svg" xmlns:xlink="http://www.w3.org/1999/xlink" x="0px" y="0px"
	 viewBox="0 0 64 64" style="enable-background:new 0 0 64 64;" xml:space="preserve">
<style type="text/css">
	.st0{fill:#404040;}
	.st1{fill:#383838;}
	.st2{fill:#6E6E6E;}
	.st3{fill:url(#SVGID_1_);}
	.st4{fill:#B0B0B0;}
	.st5{fill:#FFFFFF;}
	.st6{fill:#424242;}
	.st7{clip-path:url(#SVGID_7_);}
	.st8{clip-path:url(#SVGID_8_);fill:#ED7770;}
	.st9{fill:none;stroke:#404040;stroke-width:2.3131;stroke-linecap:round;stroke-linejoin:round;stroke-miterlimit:10;}
	.st10{fill:url(#SVGID_9_);}
	.st11{display:none;}
	.st12{display:inline;}
	.st13{opacity:0.6;}
	.st14{opacity:0.61;fill:none;stroke:#000000;stroke-width:0.2625;stroke-miterlimit:10;enable-background:new    ;}
	.st15{opacity:0.61;fill:none;stroke:#000000;stroke-width:0.25;stroke-miterlimit:10;enable-background:new    ;}
	.st16{opacity:0.61;}
	.st17{opacity:0.61;fill:none;stroke:#000000;stroke-width:0.2578;stroke-miterlimit:10;enable-background:new    ;}
	.st18{opacity:0.61;fill:none;stroke:#000000;stroke-width:0.2628;stroke-miterlimit:10;enable-background:new    ;}
	.st19{opacity:0.61;fill:none;stroke:#000000;stroke-width:0.2627;stroke-miterlimit:10;enable-background:new    ;}
	.st20{opacity:0.2;}
	.st21{clip-path:url(#SVGID_11_);}
	.st22{fill:none;stroke:#000000;stroke-width:0.25;stroke-miterlimit:10;}
	.st23{opacity:0.3;fill:#F44336;enable-background:new    ;}
</style>
<g id="Layer_2">
	<g>
		<g>
			<path class="st0" d="M14.1,22.1c-3.8,0-6.8-3.1-6.8-6.8s3.1-6.8,6.8-6.8s6.8,3.1,6.8,6.8S17.8,22.1,14.1,22.1z"/>
			<path class="st1" d="M14.1,9c3.4,0,6.2,2.8,6.2,6.2s-2.8,6.2-6.2,6.2s-6.2-2.8-6.2-6.2S10.6,9,14.1,9 M14.1,7.8
				c-4.1,0-7.5,3.3-7.5,7.5s3.3,7.5,7.5,7.5s7.5-3.3,7.5-7.5S18.2,7.8,14.1,7.8L14.1,7.8z"/>
		</g>
		<circle class="st2" cx="14.1" cy="15.2" r="4.3"/>
		<g>
			<path class="st0" d="M50.3,22.1c-3.8,0-6.8-3.1-6.8-6.8s3.1-6.8,6.8-6.8c3.8,0,6.8,3.1,6.8,6.8S54.1,22.1,50.3,22.1z"/>
			<path class="st1" d="M50.3,9c3.4,0,6.2,2.8,6.2,6.2s-2.8,6.2-6.2,6.2c-3.4,0-6.2-2.8-6.2-6.2S46.9,9,50.3,9 M50.3,7.8
				c-4.1,0-7.5,3.3-7.5,7.5s3.3,7.5,7.5,7.5s7.5-3.3,7.5-7.5S54.4,7.8,50.3,7.8L50.3,7.8z"/>
		</g>
		<circle class="st2" cx="50.3" cy="15.2" r="4.3"/>
	</g>
	<g>
		
			<linearGradient id="SVGID_1_" gradientUnits="userSpaceOnUse" x1="32.1754" y1="8.4828" x2="32.1754" y2="56.6877" gradientTransform="matrix(1 0 0 -1 0 66)">
			<stop  offset="9.765625e-04" style="stop-color:#D1D1D1"/>
			<stop  offset="0.1117" style="stop-color:#D4D4D4"/>
			<stop  offset="0.2065" style="stop-color:#DFDFDF"/>
			<stop  offset="0.2953" style="stop-color:#F1F1F1"/>
			<stop  offset="0.3484" style="stop-color:#FFFFFF"/>
		</linearGradient>
		<path class="st3" d="M32.2,57.5C16.2,57.5,7,50,7,36.8C7,30,9.4,23.1,13.6,18c3.3-4,9.2-8.7,18.6-8.7s15.3,4.7,18.6,8.7
			c4.2,5.1,6.6,11.9,6.6,18.8C57.3,50,48.2,57.5,32.2,57.5z"/>
		<path class="st4" d="M32.2,10c9.2,0,14.9,4.6,18.1,8.5c4.1,5,6.4,11.7,6.4,18.4c0,6.4-2.1,11.3-6.3,14.8
			c-4.2,3.4-10.5,5.2-18.2,5.2s-14-1.8-18.2-5.2c-4.2-3.4-6.4-8.4-6.4-14.8c0-6.7,2.3-13.4,6.4-18.4C17.3,14.6,23,10,32.2,10
			 M32.2,8.7C15.7,8.7,6.4,23.2,6.4,36.8S16,58.2,32.2,58.2S58,50.5,58,36.8S48.7,8.7,32.2,8.7L32.2,8.7z"/>
	</g>
	<g>
		<path class="st0" d="M13,43.2c3.6,2.7,8.9,0.9,11.7-4.1s2.2-11.2-1.4-13.9s-8.9-0.9-11.7,4.1S9.4,40.4,13,43.2z"/>
		<ellipse transform="matrix(0.2448 -0.9696 0.9696 0.2448 -15.6271 44.0175)" class="st5" cx="20.4" cy="32" rx="3.2" ry="2.6"/>
	</g>
	<g>
		<path class="st0" d="M51.4,43.2c-3.6,2.7-8.9,0.9-11.7-4.1S37.4,27.9,41,25.2s8.9-0.9,11.7,4.1C55.6,34.2,55,40.4,51.4,43.2z"/>
		<ellipse transform="matrix(0.9696 -0.2448 0.2448 0.9696 -6.5071 11.7246)" class="st5" cx="43.9" cy="32" rx="2.6" ry="3.2"/>
	</g>
	<g>
		<g>
			<g>
				<path id="SVGID_3_" class="st6" d="M37,46l0,0.3c0,0.8-0.2,1.6-0.5,2.3c-0.1,0.3-0.3,0.5-0.5,0.8c-0.2,0.2-0.4,0.5-0.6,0.7
					c-0.8,0.7-1.9,1.1-3,1.2l0,0c-0.1,0-0.3,0-0.4,0c-0.1,0-0.3,0-0.4,0c-0.4-0.1-0.8-0.2-1.2-0.4c-0.4-0.2-0.7-0.4-1-0.6
					c-0.2-0.2-0.5-0.4-0.7-0.6c-0.2-0.2-0.4-0.5-0.5-0.8c-0.4-0.7-0.6-1.5-0.6-2.3l0-0.3c2.1,0,4.8-1.2,4.8-3.6l0,0l0,0l0,0
					C32.2,44.9,34.8,46,37,46z"/>
			</g>
			<g>
				<defs>
					<path id="SVGID_2_" d="M37,46l0,0.3c0,0.8-0.2,1.6-0.5,2.3c-0.1,0.3-0.3,0.5-0.5,0.8c-0.2,0.2-0.4,0.5-0.6,0.7
						c-0.8,0.7-1.9,1.1-3,1.2l0,0c-0.1,0-0.3,0-0.4,0c-0.1,0-0.3,0-0.4,0c-0.4-0.1-0.8-0.2-1.2-0.4c-0.4-0.2-0.7-0.4-1-0.6
						c-0.2-0.2-0.5-0.4-0.7-0.6c-0.2-0.2-0.4-0.5-0.5-0.8c-0.4-0.7-0.6-1.5-0.6-2.3l0-0.3c2.1,0,4.8-1.2,4.8-3.6l0,0l0,0l0,0
						C32.2,44.9,34.8,46,37,46z"/>
				</defs>
				<clipPath id="SVGID_4_">
					<use xlink:href="#SVGID_2_"  style="overflow:visible;"/>
				</clipPath>
			</g>
			<g>
				<defs>
					<path id="SVGID_5_" d="M37,46l0,0.3c0,0.8-0.2,1.6-0.5,2.3c-0.1,0.3-0.3,0.5-0.5,0.8c-0.2,0.2-0.4,0.5-0.6,0.7
						c-0.8,0.7-1.9,1.1-3,1.2l0,0c-0.1,0-0.3,0-0.4,0c-0.1,0-0.3,0-0.4,0c-0.4-0.1-0.8-0.2-1.2-0.4c-0.4-0.2-0.7-0.4-1-0.6
						c-0.2-0.2-0.5-0.4-0.7-0.6c-0.2-0.2-0.4-0.5-0.5-0.8c-0.4-0.7-0.6-1.5-0.6-2.3l0-0.3c2.1,0,4.8-1.2,4.8-3.6l0,0l0,0l0,0
						C32.2,44.9,34.8,46,37,46z"/>
				</defs>
				<defs>
					<path id="SVGID_6_" d="M37,46l0,0.3c0,0.8-0.2,1.6-0.5,2.3c-0.1,0.3-0.3,0.5-0.5,0.8c-0.2,0.2-0.4,0.5-0.6,0.7
						c-0.8,0.7-1.9,1.1-3,1.2l0,0c-0.1,0-0.3,0-0.4,0c-0.1,0-0.3,0-0.4,0c-0.4-0.1-0.8-0.2-1.2-0.4c-0.4-0.2-0.7-0.4-1-0.6
						c-0.2-0.2-0.5-0.4-0.7-0.6c-0.2-0.2-0.4-0.5-0.5-0.8c-0.4-0.7-0.6-1.5-0.6-2.3l0-0.3c2.1,0,4.8-1.2,4.8-3.6l0,0l0,0l0,0
						C32.2,44.9,34.8,46,37,46z"/>
				</defs>
				<clipPath id="SVGID_7_">
					<use xlink:href="#SVGID_5_"  style="overflow:visible;"/>
				</clipPath>
				<clipPath id="SVGID_8_" class="st7">
					<use xlink:href="#SVGID_6_"  style="overflow:visible;"/>
				</clipPath>
				<path class="st8" d="M28.3,52c0-2.2,1.7-4,3.9-4.1c2.2,0,4,1.7,4.1,3.9"/>
			</g>
		</g>
		<path class="st9" d="M32.1,41.7c0,2.3-1.8,4.2-4.1,4.2c-1.1,0-2-0.4-2.8-1"/>
		<path class="st9" d="M32.1,41.7c0,2.3,1.9,4.1,4.2,4.1c1.1,0,2-0.4,2.7-1.1"/>
	</g>
	
		<linearGradient id="SVGID_9_" gradientUnits="userSpaceOnUse" x1="32.1757" y1="27.2477" x2="32.1757" y2="22.8324" gradientTransform="matrix(1 0 0 -1 0 66)">
		<stop  offset="0.1628" style="stop-color:#4D4D4D"/>
		<stop  offset="0.3672" style="stop-color:#373737"/>
		<stop  offset="0.7836" style="stop-color:#0F0F0F"/>
		<stop  offset="1" style="stop-color:#000000"/>
	</linearGradient>
	<path class="st10" d="M32.2,42.8c2,0,3.2-0.9,3.9-1.9c0.7-1.1-0.1-2.3-1.3-2.3h-5.1c-1.3,0-2,1.3-1.3,2.3S30.2,42.8,32.2,42.8z"/>
</g>
<g id="Layer_1" class="st11">
	<g class="st12">
		<g class="st13">
			<circle class="st14" cx="64" cy="64" r="28"/>
			<line class="st15" x1="84" y1="0" x2="84" y2="128"/>
			<line class="st15" x1="44" y1="0" x2="44" y2="128"/>
			<line class="st15" x1="64" y1="0" x2="64" y2="128"/>
			<line class="st15" x1="128" y1="64" x2="0" y2="64"/>
			<line class="st15" x1="128" y1="44" x2="0" y2="44"/>
			<line class="st15" x1="128" y1="83.8" x2="0" y2="83.8"/>
			<line class="st15" x1="128" y1="128" x2="0" y2="0"/>
			<line class="st15" x1="0" y1="128" x2="128" y2="0"/>
			<g class="st16">
				<path d="M64,4.3c32.9,0,59.7,26.8,59.7,59.7S96.9,123.7,64,123.7S4.3,96.9,4.3,64S31.1,4.3,64,4.3 M64,4C30.9,4,4,30.9,4,64
					s26.9,60,60,60s60-26.9,60-60S97.1,4,64,4L64,4z"/>
			</g>
			<path class="st17" d="M108,116H20c-4.4,0-8-3.6-8-8V20c0-4.4,3.6-8,8-8H108c4.4,0,8,3.6,8,8v87.9C116,112.4,112.4,116,108,116z"
				/>
			<path class="st18" d="M100,124H28c-4.4,0-8-3.6-8-8V12c0-4.4,3.6-8,8-8h72c4.4,0,8,3.6,8,8v104C108,120.4,104.4,124,100,124z"/>
			<path class="st19" d="M113.8,108H14.2C8.6,108,4,103.4,4,97.8V30.3c0-5.6,4.6-10.2,10.2-10.2h99.5c5.6,0,10.2,4.6,10.2,10.2v67.5
				C124,103.4,119.4,108,113.8,108z"/>
		</g>
		<g>
			<g class="st20">
				<g>
					<defs>
						<rect id="SVGID_10_" width="128" height="128"/>
					</defs>
					<clipPath id="SVGID_11_">
						<use xlink:href="#SVGID_10_"  style="overflow:visible;"/>
					</clipPath>
					<g class="st21">
						<g>
							<line class="st22" x1="-28" y1="160" x2="-28" y2="-32"/>
							<line class="st22" x1="-24" y1="160" x2="-24" y2="-32"/>
							<line class="st22" x1="-20" y1="160" x2="-20" y2="-32"/>
							<line class="st22" x1="-16" y1="160" x2="-16" y2="-32"/>
							<line class="st22" x1="-12" y1="160" x2="-12" y2="-32"/>
							<line class="st22" x1="-8" y1="160" x2="-8" y2="-32"/>
							<line class="st22" x1="-4" y1="160" x2="-4" y2="-32"/>
							<line class="st22" x1="0" y1="160" x2="0" y2="-32"/>
							<line class="st22" x1="4" y1="160" x2="4" y2="-32"/>
							<line class="st22" x1="8" y1="160" x2="8" y2="-32"/>
							<line class="st22" x1="12" y1="160" x2="12" y2="-32"/>
							<line class="st22" x1="16" y1="160" x2="16" y2="-32"/>
							<line class="st22" x1="20" y1="160" x2="20" y2="-32"/>
							<line class="st22" x1="24" y1="160" x2="24" y2="-32"/>
							<line class="st22" x1="28" y1="160" x2="28" y2="-32"/>
							<line class="st22" x1="32" y1="160" x2="32" y2="-32"/>
							<line class="st22" x1="36" y1="160" x2="36" y2="-32"/>
							<line class="st22" x1="40" y1="160" x2="40" y2="-32"/>
							<line class="st22" x1="44" y1="160" x2="44" y2="-32"/>
							<line class="st22" x1="48" y1="160" x2="48" y2="-32"/>
							<line class="st22" x1="52" y1="160" x2="52" y2="-32"/>
							<line class="st22" x1="56" y1="160" x2="56" y2="-32"/>
							<line class="st22" x1="60" y1="160" x2="60" y2="-32"/>
							<line class="st22" x1="64" y1="160" x2="64" y2="-32"/>
							<line class="st22" x1="68" y1="160" x2="68" y2="-32"/>
							<line class="st22" x1="72" y1="160" x2="72" y2="-32"/>
							<line class="st22" x1="76" y1="160" x2="76" y2="-32"/>
							<line class="st22" x1="80" y1="160" x2="80" y2="-32"/>
							<line class="st22" x1="84" y1="160" x2="84" y2="-32"/>
							<line class="st22" x1="88" y1="160" x2="88" y2="-32"/>
							<line class="st22" x1="92" y1="160" x2="92" y2="-32"/>
							<line class="st22" x1="96" y1="160" x2="96" y2="-32"/>
							<line class="st22" x1="100" y1="160" x2="100" y2="-32"/>
							<line class="st22" x1="104" y1="160" x2="104" y2="-32"/>
							<line class="st22" x1="108" y1="160" x2="108" y2="-32"/>
							<line class="st22" x1="112" y1="160" x2="112" y2="-32"/>
							<line class="st22" x1="116" y1="160" x2="116" y2="-32"/>
							<line class="st22" x1="120" y1="160" x2="120" y2="-32"/>
							<line class="st22" x1="124" y1="160" x2="124" y2="-32"/>
							<line class="st22" x1="128" y1="160" x2="128" y2="-32"/>
							<line class="st22" x1="132" y1="160" x2="132" y2="-32"/>
							<line class="st22" x1="136" y1="160" x2="136" y2="-32"/>
							<line class="st22" x1="137" y1="166.1" x2="137" y2="-26"/>
							<line class="st22" x1="144" y1="160" x2="144" y2="-32"/>
							<line class="st22" x1="148" y1="160" x2="148" y2="-32"/>
							<line class="st22" x1="152" y1="160" x2="152" y2="-32"/>
							<line class="st22" x1="156" y1="160" x2="156" y2="-32"/>
						</g>
						<g>
							<line class="st22" x1="-32" y1="-28" x2="160" y2="-28"/>
							<line class="st22" x1="-32" y1="-24" x2="160" y2="-24"/>
							<line class="st22" x1="-32" y1="-20" x2="160" y2="-20"/>
							<line class="st22" x1="-32" y1="-16" x2="160" y2="-16"/>
							<line class="st22" x1="-32" y1="-12" x2="160" y2="-12"/>
							<line class="st22" x1="-32" y1="-8" x2="160" y2="-8"/>
							<line class="st22" x1="-32" y1="-4" x2="160" y2="-4"/>
							<line class="st22" x1="-32" y1="0" x2="160" y2="0"/>
							<line class="st22" x1="-32" y1="4" x2="160" y2="4"/>
							<line class="st22" x1="-32" y1="8" x2="160" y2="8"/>
							<line class="st22" x1="-32" y1="12" x2="160" y2="12"/>
							<line class="st22" x1="-32" y1="16" x2="160" y2="16"/>
							<line class="st22" x1="-32" y1="20" x2="160" y2="20"/>
							<line class="st22" x1="-32" y1="24" x2="160" y2="24"/>
							<line class="st22" x1="-32" y1="28" x2="160" y2="28"/>
							<line class="st22" x1="-32" y1="32" x2="160" y2="32"/>
							<line class="st22" x1="-32" y1="36" x2="160" y2="36"/>
							<line class="st22" x1="-32" y1="40" x2="160" y2="40"/>
							<line class="st22" x1="-32" y1="44" x2="160" y2="44"/>
							<line class="st22" x1="-32" y1="48" x2="160" y2="48"/>
							<line class="st22" x1="-32" y1="52" x2="160" y2="52"/>
							<line class="st22" x1="-32" y1="56" x2="160" y2="56"/>
							<line class="st22" x1="-32" y1="60" x2="160" y2="60"/>
							<line class="st22" x1="-32" y1="64" x2="160" y2="64"/>
							<line class="st22" x1="-32" y1="68" x2="160" y2="68"/>
							<line class="st22" x1="-32" y1="72" x2="160" y2="72"/>
							<line class="st22" x1="-32" y1="76" x2="160" y2="76"/>
							<line class="st22" x1="-32" y1="80" x2="160" y2="80"/>
							<line class="st22" x1="-32" y1="84" x2="160" y2="84"/>
							<line class="st22" x1="-32" y1="88" x2="160" y2="88"/>
							<line class="st22" x1="-32" y1="92" x2="160" y2="92"/>
							<line class="st22" x1="-32" y1="96" x2="160" y2="96"/>
							<line class="st22" x1="-32" y1="100" x2="160" y2="100"/>
							<line class="st22" x1="-32" y1="104" x2="160" y2="104"/>
							<line class="st22" x1="-32" y1="108" x2="160" y2="108"/>
							<line class="st22" x1="-32" y1="112" x2="160" y2="112"/>
							<line class="st22" x1="-32" y1="116" x2="160" y2="116"/>
							<line class="st22" x1="-32" y1="120" x2="160" y2="120"/>
							<line class="st22" x1="-32" y1="124" x2="160" y2="124"/>
							<line class="st22" x1="-32" y1="128" x2="160" y2="128"/>
							<line class="st22" x1="-32" y1="132" x2="160" y2="132"/>
							<line class="st22" x1="-32" y1="136" x2="160" y2="136"/>
							<line class="st22" x1="-32" y1="140" x2="160" y2="140"/>
							<line class="st22" x1="-32" y1="144" x2="160" y2="144"/>
							<line class="st22" x1="-32" y1="148" x2="160" y2="148"/>
							<line class="st22" x1="-32" y1="152" x2="160" y2="152"/>
							<line class="st22" x1="-32" y1="156" x2="160" y2="156"/>
						</g>
						<path d="M159.8-31.8v191.5H-31.8V-31.8H159.8 M160-32H-32v192h192V-32L160-32z"/>
					</g>
				</g>
			</g>
			<g>
				<rect class="st23" width="4" height="128"/>
				<rect x="124" class="st23" width="4" height="128"/>
				<rect x="4" class="st23" width="120" height="4"/>
				<rect x="4" y="124" class="st23" width="120" height="4"/>
			</g>
		</g>
	</g>
</g>
</svg>
